<svg version="1.0" xmlns="http://www.w3.org/2000/svg"  viewBox="0 0 300.000000 346.000000"  preserveAspectRatio="xMidYMid meet">
    <g transform="translate(0.000000,346.000000) scale(0.100000,-0.100000)" fill="#ff5e00" stroke="none">
        <path d="M1496 3449 c-3 -8 -66 -277 -141 -599 -154 -664 -143 -620 -157 -620 -6 0 -272 83 -591 185 -319 102 -584 184 -590 182 -5 -1 198 -196 452 -431 254 -236 461 -432 459 -437 -2 -5 -208 -196 -458 -425 -250 -228 -456 -419 -458 -424 -2 -5 18 -3 45 5 26 8 296 91 598 184 303 93 553 166 556 162 4 -3 68 -276 143 -606 143 -626 144 -631 151 -624 2 3 65 281 139 618 74 338 137 615 138 617 2 1 253 -73 558 -167 305 -93 577 -176 603 -184 27 -8 47 -10 45 -5 -2 4 -208 196 -458 425 -250 229 -456 420 -458 424 -1 4 205 200 459 436 254 236 457 431 452 432 -5 2 -273 -80 -595 -182 -321 -102 -590 -185 -596 -185 -14 0 -3 -45 -152 630 -72 327 -133 596 -135 599 -3 2 -7 -2 -9 -10z"/>
    </g>
</svg> 